<?xml version="1.0" encoding="UTF-8"?>
<svg width="120" height="480" viewBox="0 0 120 480" xmlns="http://www.w3.org/2000/svg">
  <!-- See (見る) Icon -->
  <g transform="translate(10,10)">
    <circle cx="50" cy="50" r="45" fill="none" stroke="#c9a77c" stroke-width="2"/>
    <path d="M25,50 C35,35 65,35 75,50 C65,65 35,65 25,50Z" fill="none" stroke="#c9a77c" stroke-width="2"/>
    <circle cx="50" cy="50" r="10" fill="#c9a77c"/>
  </g>
  
  <!-- Realize (気付く) Icon -->
  <g transform="translate(10,130)">
    <circle cx="50" cy="50" r="45" fill="none" stroke="#c9a77c" stroke-width="2"/>
    <path d="M50,20 L50,80 M20,50 L80,50" stroke="#c9a77c" stroke-width="2"/>
    <circle cx="50" cy="50" r="15" fill="none" stroke="#c9a77c" stroke-width="2"/>
  </g>
  
  <!-- Transform (変わる) Icon -->
  <g transform="translate(10,250)">
    <path d="M20,50 C20,30 80,70 80,50 C80,30 20,70 20,50" fill="none" stroke="#c9a77c" stroke-width="2"/>
    <circle cx="20" cy="50" r="5" fill="#c9a77c"/>
    <circle cx="80" cy="50" r="5" fill="#c9a77c"/>
  </g>
  
  <!-- Awaken (目覚める) Icon -->
  <g transform="translate(10,370)">
    <circle cx="50" cy="50" r="45" fill="none" stroke="#c9a77c" stroke-width="2"/>
    <path d="M30,50 L70,50 M50,30 L50,70" stroke="#c9a77c" stroke-width="2"/>
    <circle cx="50" cy="50" r="20" fill="none" stroke="#c9a77c" stroke-width="2"/>
    <circle cx="50" cy="50" r="5" fill="#c9a77c"/>
  </g>
</svg>
